<?xml version="1.0" encoding="iso-8859-1"?>
<!-- Generator: Adobe Illustrator 19.0.0, SVG Export Plug-In . SVG Version: 6.00 Build 0)  -->
<svg version="1.1" id="Capa_1" xmlns="http://www.w3.org/2000/svg" xmlns:xlink="http://www.w3.org/1999/xlink" x="0px" y="0px"
	 viewBox="0 0 512.004 512.004" style="enable-background:new 0 0 512.004 512.004;" xml:space="preserve">
<polygon style="fill:#FA5419;" points="256.002,232.004 40.666,368.004 256.002,504.004 471.338,368.004 "/>
<polygon style="fill:#FDCD3B;" points="256.002,120.004 40.666,256.004 256.002,392.004 471.338,256.004 "/>
<polygon style="fill:#21A9F6;" points="256.002,8.004 40.666,144.004 256.002,280.004 471.338,144.004 "/>
<path d="M256.002,248.004c-1.488,0-2.968-0.408-4.272-1.232l-24.528-15.496l8.544-13.528l20.256,12.8l19.808-12.512l8.544,13.528
	l-24.08,15.208C258.97,247.588,257.49,248.004,256.002,248.004z"/>
<path d="M234.938,70.772l-8.544-13.528l25.336-16c2.608-1.648,5.936-1.648,8.544,0l25.312,15.992l-8.544,13.52l-21.04-13.288
	L234.938,70.772z"/>
<path d="M70.21,284.132l-33.816-21.36c-2.32-1.472-3.728-4.024-3.728-6.768s1.408-5.296,3.728-6.768l33.816-21.36l8.544,13.528
	l-23.104,14.6l23.112,14.592L70.21,284.132z"/>
<path d="M256.002,400.004c-1.488,0-2.968-0.408-4.272-1.232l-33.824-21.36l8.544-13.528l29.552,18.656l29.544-18.664l8.544,13.528
	l-33.824,21.36C258.97,399.596,257.49,400.004,256.002,400.004z"/>
<path d="M441.794,284.132l-8.544-13.528l23.104-14.6l-23.112-14.592l8.544-13.528l33.824,21.36c2.32,1.472,3.728,4.016,3.728,6.768
	s-1.408,5.296-3.728,6.768L441.794,284.132z"/>
<path d="M36.394,150.772l77.96,49.232L91.25,214.596l8.544,13.528l29.544-18.656l122.392,77.304
	c1.304,0.824,2.784,1.232,4.272,1.232c1.488,0,2.968-0.408,4.272-1.232l122.392-77.304l29.544,18.656l8.544-13.528l-23.096-14.592
	l77.952-49.232c2.32-1.472,3.728-4.016,3.728-6.768s-1.408-5.296-3.728-6.768l-215.336-136c-2.608-1.648-5.936-1.648-8.544,0
	l-215.336,136c-2.32,1.472-3.728,4.024-3.728,6.768S34.074,149.3,36.394,150.772z M256.002,17.468l200.352,126.536L256.002,270.54
	L55.65,144.004L256.002,17.468z"/>
<rect x="174.421" y="311.887" transform="matrix(-0.534 0.8455 -0.8455 -0.534 571.9316 375.7271)" width="16" height="67.185"/>
<rect x="295.996" y="337.519" transform="matrix(-0.8455 0.534 -0.534 -0.8455 792.7576 461.6539)" width="67.185" height="16"/>
<path d="M475.61,361.236l-77.952-49.232l32.776-20.696l-8.544-13.528l-56.816,35.872l8.544,13.528l9.048-5.712l73.688,46.536
	L256.002,494.54L55.65,368.004l73.688-46.536l9.04,5.712l8.544-13.528L90.114,277.78l-8.544,13.528l32.784,20.696l-77.952,49.232
	c-2.328,1.472-3.736,4.024-3.736,6.768s1.408,5.296,3.728,6.768l215.336,136c1.304,0.824,2.784,1.232,4.272,1.232
	c1.488,0,2.968-0.408,4.272-1.232l215.336-136c2.32-1.472,3.728-4.016,3.728-6.768S477.93,362.708,475.61,361.236z"/>
<g>
</g>
<g>
</g>
<g>
</g>
<g>
</g>
<g>
</g>
<g>
</g>
<g>
</g>
<g>
</g>
<g>
</g>
<g>
</g>
<g>
</g>
<g>
</g>
<g>
</g>
<g>
</g>
<g>
</g>
</svg>
