<svg id="Capa_1" enable-background="new 0 0 512 512" height="512" viewBox="0 0 512 512" width="512" xmlns="http://www.w3.org/2000/svg"><g><g><path d="m474.5 504.5h-437c-16.569 0-30-13.431-30-30v-437c0-16.569 13.431-30 30-30h391.404c5.3 0 10.384 2.104 14.134 5.849l55.596 55.528c3.756 3.751 5.866 8.842 5.866 14.151v391.472c0 16.569-13.432 30-30 30z" fill="#8fd8fa"/><path d="m498.633 68.877-55.596-55.528c-3.75-3.745-8.833-5.849-14.133-5.849h-30c5.3 0 10.383 2.104 14.133 5.849l55.596 55.528c3.756 3.751 5.866 8.842 5.866 14.151v391.472c0 16.569-13.431 30-30 30h30c16.569 0 30-13.431 30-30v-391.472c.001-5.308-2.11-10.399-5.866-14.151z" fill="#6bcdfe"/><path d="m366.087 187.5h-220.339c-11.046 0-20-8.954-20-20v-160h260.339v160c0 11.046-8.954 20-20 20z" fill="#eaf6ff"/><path d="m356.087 7.5v160c0 11.046-8.954 20-20 20h30c11.046 0 20-8.954 20-20v-160z" fill="#d8ecfe"/><path d="m431.087 504.5h-350.339v-235c0-11.046 8.954-20 20-20h310.339c11.046 0 20 8.954 20 20z" fill="#eaf6ff"/><path d="m411.087 249.5h-30c11.046 0 20 8.954 20 20v235h30v-235c0-11.046-8.954-20-20-20z" fill="#d8ecfe"/><path d="m331.087 142.5h-43.219c-5.523 0-10-4.477-10-10v-70c0-5.523 4.477-10 10-10h43.219c5.523 0 10 4.477 10 10v70c0 5.523-4.477 10-10 10z" fill="#8fd8fa"/><path d="m331.087 52.5h-30c5.523 0 10 4.477 10 10v70c0 5.523-4.477 10-10 10h30c5.523 0 10-4.477 10-10v-70c0-5.523-4.477-10-10-10z" fill="#6bcdfe"/><g><g><path d="m330.646 443.545h-149.456c-12.513 0-22.658-10.144-22.658-22.658v-87.775c0-12.513 10.144-22.658 22.658-22.658h149.457c12.513 0 22.658 10.144 22.658 22.658v87.775c-.001 12.514-10.145 22.658-22.659 22.658z" fill="#f58a97"/><path d="m330.646 310.455h-30c12.513 0 22.657 10.144 22.657 22.657v87.775c0 12.513-10.144 22.657-22.657 22.657h30c12.513 0 22.657-10.144 22.657-22.657v-87.775c.001-12.513-10.143-22.657-22.657-22.657z" fill="#f07281"/><path d="m278.373 380.823-39.776 26.756c-3.057 2.056-7.169-.136-7.169-3.823v-53.512c0-3.686 4.112-5.879 7.169-3.823l39.776 26.756c2.713 1.825 2.713 5.821 0 7.646z" fill="#fff"/></g></g></g><path d="m287.869 150h43.219c9.649 0 17.5-7.851 17.5-17.5v-70c0-9.649-7.851-17.5-17.5-17.5h-43.219c-9.649 0-17.5 7.851-17.5 17.5v70c0 9.649 7.851 17.5 17.5 17.5zm-2.5-87.5c0-1.379 1.121-2.5 2.5-2.5h43.219c1.379 0 2.5 1.121 2.5 2.5v70c0 1.379-1.121 2.5-2.5 2.5h-43.219c-1.379 0-2.5-1.121-2.5-2.5zm45.277 240.455h-149.457c-16.629 0-30.157 13.528-30.157 30.157v87.775c0 16.629 13.528 30.157 30.157 30.157h149.457c16.629 0 30.157-13.528 30.157-30.157v-87.775c.001-16.629-13.528-30.157-30.157-30.157zm15.158 117.933c0 8.357-6.8 15.157-15.157 15.157h-149.458c-8.358 0-15.157-6.8-15.157-15.157v-87.775c0-8.357 6.799-15.157 15.157-15.157h149.457c8.357 0 15.157 6.8 15.157 15.157v87.775zm158.13-357.317-55.596-55.527c-5.192-5.188-12.094-8.044-19.434-8.044h-391.404c-20.678 0-37.5 16.822-37.5 37.5v437c0 20.678 16.822 37.5 37.5 37.5h437c20.678 0 37.5-16.822 37.5-37.5v-391.472c0-7.352-2.864-14.262-8.066-19.457zm-6.934 410.929c0 12.406-10.094 22.5-22.5 22.5h-35.912v-60.972c0-4.143-3.357-7.5-7.5-7.5s-7.5 3.357-7.5 7.5v60.972h-335.339v-227.5c0-6.893 5.607-12.5 12.5-12.5h310.339c6.893 0 12.5 5.607 12.5 12.5v131.528c0 4.143 3.357 7.5 7.5 7.5s7.5-3.357 7.5-7.5v-131.528c0-15.163-12.336-27.5-27.5-27.5h-310.339c-15.164 0-27.5 12.337-27.5 27.5v227.5h-35.749c-12.407 0-22.5-10.094-22.5-22.5v-437c0-12.406 10.093-22.5 22.5-22.5h80.749v152.5c0 15.163 12.336 27.5 27.5 27.5h35.958c4.142 0 7.5-3.357 7.5-7.5s-3.358-7.5-7.5-7.5h-35.958c-6.893 0-12.5-5.607-12.5-12.5v-152.5h245.339v152.5c0 6.893-5.607 12.5-12.5 12.5h-149.382c-4.142 0-7.5 3.357-7.5 7.5s3.358 7.5 7.5 7.5h149.382c15.163 0 27.5-12.337 27.5-27.5v-152.5h35.316c3.336 0 6.473 1.298 8.833 3.656l55.597 55.528c2.364 2.361 3.666 5.502 3.666 8.844zm-214.44-107.545-39.777-26.758c-7.901-5.418-18.929.61-18.854 10.047v53.512c-.091 9.417 11.032 15.419 18.855 10.046l39.774-26.756c7.02-4.644 6.99-15.47.002-20.091zm-43.632 31.362v-42.635l31.69 21.318z"/></g></svg>