<svg id="Layer_1" enable-background="new 0 0 511.995 511.995" height="512" viewBox="0 0 511.995 511.995" width="512" xmlns="http://www.w3.org/2000/svg"><g><g><g><path d="m448.608 504.495h-342.722c-17.093 0-30.95-13.857-30.95-30.95v-247.436c0-17.093 13.857-30.95 30.95-30.95h342.722c17.093 0 30.95 13.857 30.95 30.95v247.437c0 17.092-13.857 30.949-30.95 30.949z" fill="#685e68"/><path d="m448.608 195.159h-30c17.093 0 30.95 13.856 30.95 30.95v247.437c0 17.093-13.857 30.95-30.95 30.95h30c17.093 0 30.95-13.856 30.95-30.95v-247.437c0-17.094-13.857-30.95-30.95-30.95z" fill="#554e56"/><g><path d="m63.412 188.692-9.499-23.523c-2.133-5.281.424-11.29 5.711-13.42l356.093-143.503c5.287-2.13 11.301.424 13.434 5.705l9.499 23.523c2.133 5.281-.424 11.29-5.711 13.42l-356.093 143.503c-5.287 2.13-11.302-.424-13.434-5.705z" fill="#554e56"/><path d="m438.65 37.474-9.499-23.523c-2.133-5.281-8.147-7.835-13.434-5.705l-16.229 6.54 9.162 22.688c2.133 5.281-.424 11.29-5.711 13.42l-339.865 136.963.337.835c2.133 5.281 8.147 7.835 13.434 5.705l356.094-143.503c5.287-2.13 7.844-8.138 5.711-13.42z" fill="#433f43"/><path d="m354.735 82.41 44.701-18.014-45.94-31.075-44.701 18.014z" fill="#ffe07d"/><path d="m354.735 82.41 44.701-18.014-11.2-7.576-44.701 18.014z" fill="#ffd064"/><path d="m246.901 125.866 44.701-18.014-45.94-31.075-44.701 18.014z" fill="#f58a97"/><path d="m246.901 125.866 44.7-18.014-11.2-7.576-44.701 18.014z" fill="#f07281"/><path d="m139.066 169.323 44.701-18.015-45.94-31.075-44.701 18.014z" fill="#c1e9af"/><path d="m139.066 169.322 44.701-18.014-11.2-7.576-44.701 18.014z" fill="#ade194"/></g><g><path d="m479.558 226.092v15.054h-404.622v-15.054c0-17.084 13.864-30.934 30.966-30.934h342.69c17.102.001 30.966 13.85 30.966 30.934z" fill="#554e56"/><path d="m448.592 195.159h-30c17.102 0 30.966 13.849 30.966 30.934v15.054h30v-15.054c0-17.085-13.864-30.934-30.966-30.934z" fill="#433f43"/><path d="m384.908 195.159h48.201l-30.966 45.987h-48.201z" fill="#ffe07d"/><path d="m268.629 195.159h48.202l-30.966 45.987h-48.202z" fill="#f58a97"/><path d="m152.351 195.159h48.201l-30.966 45.987h-48.201z" fill="#c1e9af"/></g><ellipse cx="68.948" cy="210.11" fill="#f9f7f8" rx="36.507" ry="36.469"/><path d="m68.948 173.641c-5.348 0-10.423 1.158-15 3.223 12.678 5.717 21.507 18.448 21.507 33.246s-8.829 27.528-21.507 33.246c4.577 2.064 9.652 3.223 15 3.223 20.162 0 36.507-16.328 36.507-36.469s-16.345-36.469-36.507-36.469z" fill="#efedef"/></g><g><path d="m209.81 340.697h134.874v95.181h-134.874z" fill="#f9f7f8"/><path d="m344.684 340.697h134.874v95.181h-134.874z" fill="#918291"/><path d="m449.558 340.697h30v95.181h-30z" fill="#7a6d79"/><path d="m74.936 340.697h134.874v95.181h-134.874z" fill="#918291"/></g></g><path d="m178.272 287.263h-69.104c-4.142 0-7.5 3.358-7.5 7.5s3.358 7.5 7.5 7.5h69.104c4.142 0 7.5-3.358 7.5-7.5s-3.358-7.5-7.5-7.5zm133.527 0h-69.104c-4.142 0-7.5 3.358-7.5 7.5s3.358 7.5 7.5 7.5h69.104c4.142 0 7.5-3.358 7.5-7.5s-3.358-7.5-7.5-7.5zm175.255-61.158c0-21.201-17.249-38.45-38.45-38.45h-334.956l86.982-35.053c3.842-1.548 5.701-5.918 4.153-9.76s-5.919-5.701-9.76-4.153l-10.357 4.174-30.963-20.944 46.356-18.681 30.963 20.944-3.649 1.471c-3.842 1.548-5.701 5.918-4.153 9.76s5.918 5.702 9.76 4.153l202.77-81.716c4.411-1.779 7.866-5.17 9.729-9.547 1.864-4.38 1.911-9.222.129-13.637l-9.503-23.528c-3.687-9.096-14.092-13.512-23.194-9.849l-356.088 143.5c-4.417 1.778-7.876 5.17-9.739 9.551-1.861 4.378-1.905 9.22-.124 13.634l1.342 3.322c-13.886 7.403-23.361 22.021-23.361 38.815 0 23.738 18.927 43.129 42.494 43.931v219.504c0 21.202 17.249 38.45 38.45 38.45h342.72c21.201 0 38.45-17.249 38.45-38.45v-247.441zm-68.538-210.903c1.444-.582 3.101.122 3.685 1.562l9.499 23.517c.619 1.713.07 2.926-1.558 3.658l-29.805 12.011-30.962-20.944zm-65.92 26.565 30.962 20.944-27.924 11.253-30.962-20.944zm-44.701 18.014 30.963 20.944-46.356 18.681-30.963-20.944zm-63.134 25.442 30.963 20.944-27.924 11.253-30.963-20.944zm174.258 117.432-20.867 30.99h-30.117l20.867-30.99zm-48.201 0-20.867 30.99h-49.993l20.867-30.99zm-68.077 0-20.867 30.99h-30.117l20.867-30.99zm-48.201 0-20.867 30.99h-49.993l20.867-30.99zm-68.077 0-20.867 30.99h-30.117l20.867-30.99zm-48.201 0-20.867 30.99h-11.303c4.338-6.811 6.863-14.881 6.863-23.535 0-2.542-.229-5.03-.646-7.455zm-1.335-73.976 30.963 20.944-27.924 11.253-30.963-20.945zm-74.499 30.022 29.798-12.008 30.963 20.944-24.667 9.94c-7.819-7.103-18.2-11.437-29.575-11.437-2.161 0-4.284.163-6.362.465l-1.716-4.248c-.594-1.66-.061-2.932 1.559-3.656zm6.52 80.378c-15.995 0-29.007-12.995-29.007-28.969s13.012-28.969 29.007-28.969 29.007 12.995 29.007 28.969-13.013 28.969-29.007 28.969zm13.486 109.118h119.876v80.181h-119.876zm389.62 80.181h-35.059c-4.142 0-7.5 3.358-7.5 7.5s3.358 7.5 7.5 7.5h35.059v30.167c0 12.931-10.52 23.45-23.45 23.45h-342.72c-12.93 0-23.45-10.52-23.45-23.45v-30.167h319.561c4.142 0 7.5-3.358 7.5-7.5s-3.358-7.5-7.5-7.5h-49.811v-80.181h119.87zm-254.744 0v-80.181h119.874v80.181zm254.744-95.181h-389.62v-81.239c2.681-.865 5.25-1.976 7.68-3.313h381.939v84.552zm0-99.552h-55.818l20.867-30.99h11.501c12.93 0 23.45 10.52 23.45 23.45zm-101.985 61.118c0 4.142 3.358 7.5 7.5 7.5h69.104c4.142 0 7.5-3.358 7.5-7.5s-3.358-7.5-7.5-7.5h-69.104c-4.142 0-7.5 3.358-7.5 7.5z"/></g></svg>